<svg xmlns="http://www.w3.org/2000/svg" width="280" height="129" viewBox="0 0 280 129">
  <g id="_3tab-vector" data-name="3tab-vector" transform="translate(-304 -505)">
    <g id="Rectangle_1442" data-name="Rectangle 1442" transform="translate(304 556)" fill="#efefef" stroke="#272727" stroke-width="1.5">
      <rect width="48" height="27" stroke="none"/>
      <rect x="0.75" y="0.75" width="46.5" height="25.5" fill="none"/>
    </g>
    <g id="Rectangle_1422" data-name="Rectangle 1422" transform="translate(304 505)" fill="#efefef" stroke="#272727" stroke-width="1.5">
      <rect width="50" height="27" stroke="none"/>
      <rect x="0.75" y="0.75" width="48.5" height="25.5" fill="none"/>
    </g>
    <g id="Rectangle_1425" data-name="Rectangle 1425" transform="translate(448 505)" fill="#efefef" stroke="#272727" stroke-width="1.5">
      <rect width="92" height="27" stroke="none"/>
      <rect x="0.75" y="0.75" width="90.5" height="25.5" fill="none"/>
    </g>
    <g id="Rectangle_1423" data-name="Rectangle 1423" transform="translate(352 505)" fill="#efefef" stroke="#272727" stroke-width="1.5">
      <rect width="98" height="27" stroke="none"/>
      <rect x="0.75" y="0.75" width="96.5" height="25.5" fill="none"/>
    </g>
    <g id="Rectangle_1424" data-name="Rectangle 1424" transform="translate(538 505)" fill="#efefef" stroke="#272727" stroke-width="1.5">
      <rect width="46" height="27" stroke="none"/>
      <rect x="0.75" y="0.75" width="44.5" height="25.5" fill="none"/>
    </g>
    <g id="Rectangle_1429" data-name="Rectangle 1429" transform="translate(304 531)" fill="#efefef" stroke="#272727" stroke-width="1.5">
      <rect width="97" height="26" stroke="none"/>
      <rect x="0.75" y="0.75" width="95.5" height="24.5" fill="none"/>
    </g>
    <g id="Rectangle_1427" data-name="Rectangle 1427" transform="translate(494 531)" fill="#efefef" stroke="#272727" stroke-width="1.5">
      <rect width="90" height="26" stroke="none"/>
      <rect x="0.75" y="0.75" width="88.5" height="24.5" fill="none"/>
    </g>
    <g id="Rectangle_1428" data-name="Rectangle 1428" transform="translate(399 531)" fill="#efefef" stroke="#272727" stroke-width="1.5">
      <rect width="97" height="26" stroke="none"/>
      <rect x="0.75" y="0.75" width="95.5" height="24.5" fill="none"/>
    </g>
    <g id="Rectangle_1429-2" data-name="Rectangle 1429" transform="translate(304 582)" fill="#efefef" stroke="#272727" stroke-width="1.5">
      <rect width="97" height="26" stroke="none"/>
      <rect x="0.75" y="0.75" width="95.5" height="24.5" fill="none"/>
    </g>
    <g id="Rectangle_1427-2" data-name="Rectangle 1427" transform="translate(494 582)" fill="#efefef" stroke="#272727" stroke-width="1.5">
      <rect width="90" height="26" stroke="none"/>
      <rect x="0.75" y="0.75" width="88.5" height="24.5" fill="none"/>
    </g>
    <g id="Rectangle_1428-2" data-name="Rectangle 1428" transform="translate(399 582)" fill="#efefef" stroke="#272727" stroke-width="1.5">
      <rect width="97" height="26" stroke="none"/>
      <rect x="0.75" y="0.75" width="95.5" height="24.5" fill="none"/>
    </g>
    <g id="Rectangle_1431" data-name="Rectangle 1431" transform="translate(446 556)" fill="#efefef" stroke="#272727" stroke-width="1.5">
      <rect width="94" height="27" stroke="none"/>
      <rect x="0.75" y="0.75" width="92.5" height="25.5" fill="none"/>
    </g>
    <g id="Rectangle_1432" data-name="Rectangle 1432" transform="translate(350 556)" fill="#efefef" stroke="#272727" stroke-width="1.5">
      <rect width="97.5" height="27" stroke="none"/>
      <rect x="0.75" y="0.75" width="96" height="25.5" fill="none"/>
    </g>
    <g id="Rectangle_1430" data-name="Rectangle 1430" transform="translate(538 556)" fill="#efefef" stroke="#272727" stroke-width="1.5">
      <rect width="46" height="27" stroke="none"/>
      <rect x="0.75" y="0.75" width="44.5" height="25.5" fill="none"/>
    </g>
    <g id="Rectangle_1433" data-name="Rectangle 1433" transform="translate(304 607)" fill="#efefef" stroke="#272727" stroke-width="1.5">
      <rect width="50" height="27" stroke="none"/>
      <rect x="0.75" y="0.75" width="48.5" height="25.5" fill="none"/>
    </g>
    <g id="Rectangle_1431-2" data-name="Rectangle 1431" transform="translate(448 607)" fill="#efefef" stroke="#272727" stroke-width="1.5">
      <rect width="93" height="27" stroke="none"/>
      <rect x="0.75" y="0.75" width="91.5" height="25.5" fill="none"/>
    </g>
    <g id="Rectangle_1432-2" data-name="Rectangle 1432" transform="translate(352 607)" fill="#efefef" stroke="#272727" stroke-width="1.5">
      <rect width="98" height="27" stroke="none"/>
      <rect x="0.75" y="0.75" width="96.5" height="25.5" fill="none"/>
    </g>
    <g id="Rectangle_1430-2" data-name="Rectangle 1430" transform="translate(539 607)" fill="#efefef" stroke="#272727" stroke-width="1.5">
      <rect width="45" height="27" stroke="none"/>
      <rect x="0.75" y="0.75" width="43.5" height="25.5" fill="none"/>
    </g>
  </g>
</svg>
